<svg width="24" height="24" viewBox="0 0 24 24" fill="none" xmlns="http://www.w3.org/2000/svg">
<path d="M2.90918 6.65455C2.46735 6.65455 2.10918 7.01272 2.10918 7.45455C2.10918 7.89637 2.46735 8.25455 2.90918 8.25455V6.65455ZM21.091 8.25455C21.5328 8.25455 21.891 7.89637 21.891 7.45455C21.891 7.01272 21.5328 6.65455 21.091 6.65455V8.25455ZM2.90918 14.8364C2.46735 14.8364 2.10918 15.1945 2.10918 15.6364C2.10918 16.0782 2.46735 16.4364 2.90918 16.4364V14.8364ZM21.091 16.4364C21.5328 16.4364 21.891 16.0782 21.891 15.6364C21.891 15.1945 21.5328 14.8364 21.091 14.8364V16.4364ZM8.70832 2.03717C8.72884 1.59582 8.3877 1.22139 7.94635 1.20086C7.505 1.18034 7.13057 1.52148 7.11004 1.96283L8.70832 2.03717ZM6.20095 21.5083C6.18042 21.9496 6.52157 22.3241 6.96292 22.3446C7.40427 22.3651 7.7787 22.024 7.79922 21.5826L6.20095 21.5083ZM17.3447 2.49171C17.3652 2.05036 17.0241 1.67594 16.5827 1.65541C16.1414 1.63488 15.7669 1.97603 15.7464 2.41738L17.3447 2.49171ZM14.8373 21.9628C14.8168 22.4042 15.1579 22.7786 15.5993 22.7991C16.0406 22.8197 16.4151 22.4785 16.4356 22.0372L14.8373 21.9628ZM2.90918 8.25455H21.091V6.65455H2.90918V8.25455ZM2.90918 16.4364H21.091V14.8364H2.90918V16.4364ZM7.11004 1.96283L6.20095 21.5083L7.79922 21.5826L8.70832 2.03717L7.11004 1.96283ZM15.7464 2.41738L14.8373 21.9628L16.4356 22.0372L17.3447 2.49171L15.7464 2.41738Z" fill="#555A64"/>
</svg>
