<svg width="24" height="24" viewBox="0 0 24 24" fill="none" xmlns="http://www.w3.org/2000/svg">
<path d="M2.90918 6.95455C2.63304 6.95455 2.40918 7.1784 2.40918 7.45455C2.40918 7.73069 2.63304 7.95455 2.90918 7.95455V6.95455ZM21.091 7.95455C21.3671 7.95455 21.591 7.73069 21.591 7.45455C21.591 7.1784 21.3671 6.95455 21.091 6.95455V7.95455ZM2.90918 15.1364C2.63304 15.1364 2.40918 15.3602 2.40918 15.6364C2.40918 15.9125 2.63304 16.1364 2.90918 16.1364V15.1364ZM21.091 16.1364C21.3671 16.1364 21.591 15.9125 21.591 15.6364C21.591 15.3602 21.3671 15.1364 21.091 15.1364V16.1364ZM8.40864 2.02323C8.42147 1.74739 8.20825 1.51337 7.93241 1.50054C7.65657 1.48771 7.42255 1.70093 7.40972 1.97677L8.40864 2.02323ZM6.50063 21.5222C6.4878 21.7981 6.70101 22.0321 6.97686 22.0449C7.2527 22.0577 7.48672 21.8445 7.49955 21.5687L6.50063 21.5222ZM17.045 2.47778C17.0578 2.20193 16.8446 1.96792 16.5688 1.95509C16.2929 1.94226 16.0589 2.15547 16.0461 2.43131L17.045 2.47778ZM15.137 21.9768C15.1242 22.2526 15.3374 22.4866 15.6132 22.4995C15.8891 22.5123 16.1231 22.2991 16.1359 22.0232L15.137 21.9768ZM2.90918 7.95455H21.091V6.95455H2.90918V7.95455ZM2.90918 16.1364H21.091V15.1364H2.90918V16.1364ZM7.40972 1.97677L6.50063 21.5222L7.49955 21.5687L8.40864 2.02323L7.40972 1.97677ZM16.0461 2.43131L15.137 21.9768L16.1359 22.0232L17.045 2.47778L16.0461 2.43131Z" fill="white"/>
</svg>
