<svg width="24" height="24" viewBox="0 0 24 24" fill="none" xmlns="http://www.w3.org/2000/svg">
<path fill-rule="evenodd" clip-rule="evenodd" d="M11.1997 1.16399C11.5675 0.945331 12.0254 0.94533 12.3931 1.16399L22.0199 6.88783C23.0399 7.49429 22.6099 9.05904 21.4232 9.05904H20.9862C20.3737 9.05904 19.8653 9.5323 19.8215 10.1432L19.0561 20.8277C19.0123 21.4386 18.5039 21.9118 17.8914 21.9118H5.67297C5.0605 21.9118 4.55212 21.4386 4.50835 20.8277L3.74287 10.1432C3.69911 9.5323 3.19073 9.05904 2.57825 9.05904H2.16959C0.982919 9.05904 0.552877 7.49429 1.57288 6.88783L11.1997 1.16399ZM11.7964 17.2995C13.3161 17.2995 14.548 16.0676 14.548 14.5479C14.548 13.0283 13.3161 11.7964 11.7964 11.7964C10.2768 11.7964 9.0449 13.0283 9.0449 14.5479C9.0449 16.0676 10.2768 17.2995 11.7964 17.2995Z" fill="#555A64"/>
</svg>
