<svg width="24" height="24" viewBox="0 0 24 24" fill="none" xmlns="http://www.w3.org/2000/svg">
<mask id="path-1-inside-1_5_8851" fill="white">
<path fill-rule="evenodd" clip-rule="evenodd" d="M11.1997 1.16399C11.5675 0.945331 12.0254 0.94533 12.3931 1.16399L22.0199 6.88783C23.0399 7.49429 22.6099 9.05904 21.4232 9.05904H20.9862C20.3737 9.05904 19.8653 9.5323 19.8215 10.1432L19.0561 20.8277C19.0123 21.4386 18.5039 21.9118 17.8914 21.9118H5.67297C5.0605 21.9118 4.55212 21.4386 4.50835 20.8277L3.74287 10.1432C3.69911 9.5323 3.19073 9.05904 2.57825 9.05904H2.16959C0.982919 9.05904 0.552877 7.49429 1.57288 6.88783L11.1997 1.16399ZM11.7964 17.2995C13.3161 17.2995 14.548 16.0676 14.548 14.5479C14.548 13.0283 13.3161 11.7964 11.7964 11.7964C10.2768 11.7964 9.0449 13.0283 9.0449 14.5479C9.0449 16.0676 10.2768 17.2995 11.7964 17.2995Z"/>
</mask>
<path d="M1.57288 6.88783L1.06181 6.02828L1.57288 6.88783ZM4.50835 20.8277L3.51091 20.8991L4.50835 20.8277ZM19.0561 20.8277L18.0586 20.7562L19.0561 20.8277ZM12.3931 1.16399L12.9042 0.304448L12.3931 1.16399ZM11.1997 1.16399L10.6886 0.304449L11.1997 1.16399ZM22.0199 6.88783L22.531 6.02828L22.0199 6.88783ZM22.531 6.02828L12.9042 0.304448L11.8821 2.02354L21.5089 7.74737L22.531 6.02828ZM20.9862 10.059H21.4232V8.05904H20.9862V10.059ZM20.0535 20.8991L20.819 10.2147L18.8241 10.0718L18.0586 20.7562L20.0535 20.8991ZM5.67297 22.9118H17.8914V20.9118H5.67297V22.9118ZM2.74543 10.2147L3.51091 20.8991L5.50579 20.7562L4.74032 10.0717L2.74543 10.2147ZM2.16959 10.059H2.57825V8.05904H2.16959V10.059ZM10.6886 0.304449L1.06181 6.02828L2.08394 7.74737L11.7108 2.02354L10.6886 0.304449ZM13.548 14.5479C13.548 15.5153 12.7638 16.2995 11.7964 16.2995V18.2995C13.8683 18.2995 15.548 16.6199 15.548 14.5479H13.548ZM11.7964 12.7964C12.7638 12.7964 13.548 13.5806 13.548 14.5479H15.548C15.548 12.476 13.8683 10.7964 11.7964 10.7964V12.7964ZM10.0449 14.5479C10.0449 13.5806 10.8291 12.7964 11.7964 12.7964V10.7964C9.72452 10.7964 8.0449 12.476 8.0449 14.5479H10.0449ZM11.7964 16.2995C10.8291 16.2995 10.0449 15.5153 10.0449 14.5479H8.0449C8.0449 16.6199 9.72452 18.2995 11.7964 18.2995V16.2995ZM2.16959 8.05904C2.10356 8.05904 2.07758 8.04096 2.06478 8.0305C2.0448 8.01419 2.02084 7.98263 2.00798 7.93585C1.99512 7.88907 1.99959 7.8497 2.00843 7.82547C2.01409 7.80994 2.02718 7.78112 2.08394 7.74737L1.06181 6.02828C-0.831762 7.15415 -0.0334131 10.059 2.16959 10.059V8.05904ZM4.74032 10.0717C4.65906 8.93762 3.71528 8.05904 2.57825 8.05904V10.059C2.66617 10.059 2.73915 10.127 2.74543 10.2147L4.74032 10.0717ZM5.67297 20.9118C5.58505 20.9118 5.51208 20.8439 5.50579 20.7562L3.51091 20.8991C3.59216 22.0332 4.53594 22.9118 5.67297 22.9118V20.9118ZM18.0586 20.7562C18.0523 20.8439 17.9794 20.9118 17.8914 20.9118V22.9118C19.0285 22.9118 19.9723 22.0332 20.0535 20.8991L18.0586 20.7562ZM20.9862 8.05904C19.8491 8.05904 18.9054 8.93763 18.8241 10.0718L20.819 10.2147C20.8253 10.127 20.8982 10.059 20.9862 10.059V8.05904ZM12.9042 0.304448C12.2214 -0.101488 11.3714 -0.101487 10.6886 0.304449L11.7108 2.02354C11.7635 1.99215 11.8293 1.99215 11.8821 2.02354L12.9042 0.304448ZM21.5089 7.74737C21.5656 7.78112 21.5787 7.80994 21.5844 7.82547C21.5932 7.8497 21.5977 7.88907 21.5848 7.93585C21.572 7.98264 21.548 8.01419 21.528 8.0305C21.5152 8.04096 21.4893 8.05904 21.4232 8.05904V10.059C23.6262 10.059 24.4246 7.15415 22.531 6.02828L21.5089 7.74737Z" fill="white" mask="url(#path-1-inside-1_5_8851)"/>
</svg>
