<svg width="16" height="16" viewBox="0 0 16 16" fill="none" xmlns="http://www.w3.org/2000/svg">
<path d="M14.134 6.28521C14.134 9.33866 10.7022 11.7906 8.80025 12.915C8.03451 13.3677 7.0995 13.3677 6.33376 12.915C4.43186 11.7906 1 9.33866 1 6.28521C1 3.06133 3.61347 -0.2818 7.56701 4.0962C11.5205 -0.2818 14.134 3.06133 14.134 6.28521Z" stroke="#555A64" stroke-width="0.8"/>
<path d="M14.134 6.28521C14.134 9.33866 10.7022 11.7906 8.80025 12.915C8.03451 13.3677 7.0995 13.3677 6.33376 12.915C4.43186 11.7906 1 9.33866 1 6.28521C1 3.06133 3.61347 -0.2818 7.56701 4.0962C11.5205 -0.2818 14.134 3.06133 14.134 6.28521Z" stroke="#555A64" stroke-width="0.8"/>
</svg>
