<svg width="24" height="24" viewBox="0 0 24 24" fill="none" xmlns="http://www.w3.org/2000/svg">
<path fill-rule="evenodd" clip-rule="evenodd" d="M4.72736 2C3.72321 2 2.90918 2.81403 2.90918 3.81818V20.1818C2.90918 21.186 3.72321 22 4.72736 22H19.2728C20.277 22 21.091 21.186 21.091 20.1818V3.81818C21.091 2.81403 20.277 2 19.2728 2H4.72736ZM6.54552 6.09091C6.29448 6.09091 6.09097 6.29442 6.09097 6.54545C6.09097 6.79649 6.29448 7 6.54552 7H17.4546C17.7056 7 17.9092 6.79649 17.9092 6.54545C17.9092 6.29442 17.7056 6.09091 17.4546 6.09091H6.54552ZM6.54552 10.6364C6.29448 10.6364 6.09097 10.8399 6.09097 11.0909C6.09097 11.3419 6.29448 11.5455 6.54552 11.5455H17.4546C17.7056 11.5455 17.9092 11.3419 17.9092 11.0909C17.9092 10.8399 17.7056 10.6364 17.4546 10.6364H6.54552ZM6.54552 15.1818C6.29448 15.1818 6.09097 15.3853 6.09097 15.6364C6.09097 15.8874 6.29448 16.0909 6.54552 16.0909H11.091C11.342 16.0909 11.5455 15.8874 11.5455 15.6364C11.5455 15.3853 11.342 15.1818 11.091 15.1818H6.54552Z" fill="#555A64"/>
</svg>
