<svg width="24" height="24" viewBox="0 0 24 24" fill="none" xmlns="http://www.w3.org/2000/svg">
<path fill-rule="evenodd" clip-rule="evenodd" d="M3.14666 21.32H20.32C21.5056 21.32 22.4667 20.3589 22.4667 19.1733V10.5235L22.5286 6.34372L14.1995 11.3001L14.1988 11.3005C12.6809 12.2109 10.7849 12.2108 9.26719 11.3001L1 6.33981V19.1733C1 20.3589 1.96109 21.32 3.14666 21.32ZM1 5.25664V4.14667C1 2.96109 1.9611 2 3.14667 2H19.4095C21.16 2 22.5717 3.43281 22.5458 5.18312L22.5447 5.2567C22.4552 5.25529 22.3642 5.27789 22.2816 5.32704L13.6865 10.4417L13.685 10.4426C12.4837 11.1634 10.983 11.1634 9.78168 10.4426L1.25725 5.32797C1.17656 5.27956 1.08771 5.25656 1 5.25664Z" fill="#555A64"/>
</svg>
