<svg width="24" height="24" viewBox="0 0 24 24" fill="none" xmlns="http://www.w3.org/2000/svg">
<path d="M22.5 12C22.5 17.799 17.799 22.5 12 22.5V23.5C18.3513 23.5 23.5 18.3513 23.5 12H22.5ZM12 1.5C17.799 1.5 22.5 6.20101 22.5 12H23.5C23.5 5.64873 18.3513 0.5 12 0.5V1.5ZM1.5 12C1.5 6.20101 6.20101 1.5 12 1.5V0.5C5.64873 0.5 0.5 5.64873 0.5 12H1.5ZM12 22.5C6.20101 22.5 1.5 17.799 1.5 12H0.5C0.5 18.3513 5.64873 23.5 12 23.5V22.5ZM9.92851 12C9.92851 13.144 10.8559 14.0714 11.9999 14.0714V13.0714C11.4082 13.0714 10.9285 12.5917 10.9285 12H9.92851ZM11.9999 9.92857C10.8559 9.92857 9.92851 10.856 9.92851 12H10.9285C10.9285 11.4083 11.4082 10.9286 11.9999 10.9286V9.92857ZM14.0714 12C14.0714 10.856 13.144 9.92857 11.9999 9.92857V10.9286C12.5917 10.9286 13.0714 11.4083 13.0714 12H14.0714ZM11.9999 14.0714C13.144 14.0714 14.0714 13.144 14.0714 12H13.0714C13.0714 12.5917 12.5917 13.0714 11.9999 13.0714V14.0714ZM6.49994 13.0714C5.9082 13.0714 5.42851 12.5917 5.42851 12H4.42851C4.42851 13.144 5.35592 14.0714 6.49994 14.0714V13.0714ZM7.57136 12C7.57136 12.5917 7.09167 13.0714 6.49994 13.0714V14.0714C7.64395 14.0714 8.57136 13.144 8.57136 12H7.57136ZM6.49994 10.9286C7.09167 10.9286 7.57136 11.4083 7.57136 12H8.57136C8.57136 10.856 7.64395 9.92857 6.49994 9.92857V10.9286ZM5.42851 12C5.42851 11.4083 5.9082 10.9286 6.49994 10.9286V9.92857C5.35592 9.92857 4.42851 10.856 4.42851 12H5.42851ZM15.4285 12C15.4285 13.144 16.3559 14.0714 17.4999 14.0714V13.0714C16.9082 13.0714 16.4285 12.5917 16.4285 12H15.4285ZM17.4999 9.92857C16.3559 9.92857 15.4285 10.856 15.4285 12H16.4285C16.4285 11.4083 16.9082 10.9286 17.4999 10.9286V9.92857ZM19.5714 12C19.5714 10.856 18.644 9.92857 17.4999 9.92857V10.9286C18.0917 10.9286 18.5714 11.4083 18.5714 12H19.5714ZM17.4999 14.0714C18.644 14.0714 19.5714 13.144 19.5714 12H18.5714C18.5714 12.5917 18.0917 13.0714 17.4999 13.0714V14.0714Z" fill="white"/>
</svg>
