<svg width="24" height="24" viewBox="0 0 24 24" fill="none" xmlns="http://www.w3.org/2000/svg">
<path fill-rule="evenodd" clip-rule="evenodd" d="M12 23C18.0751 23 23 18.0751 23 12C23 5.92487 18.0751 1 12 1C5.92487 1 1 5.92487 1 12C1 18.0751 5.92487 23 12 23ZM11.9999 13.5714C11.1321 13.5714 10.4285 12.8679 10.4285 12C10.4285 11.1321 11.1321 10.4286 11.9999 10.4286C12.8678 10.4286 13.5714 11.1321 13.5714 12C13.5714 12.8679 12.8678 13.5714 11.9999 13.5714ZM4.92851 12C4.92851 12.8679 5.63206 13.5714 6.49994 13.5714C7.36781 13.5714 8.07136 12.8679 8.07136 12C8.07136 11.1321 7.36781 10.4286 6.49994 10.4286C5.63206 10.4286 4.92851 11.1321 4.92851 12ZM17.4999 13.5714C16.6321 13.5714 15.9285 12.8679 15.9285 12C15.9285 11.1321 16.6321 10.4286 17.4999 10.4286C18.3678 10.4286 19.0714 11.1321 19.0714 12C19.0714 12.8679 18.3678 13.5714 17.4999 13.5714Z" fill="#555A64"/>
</svg>
