<svg width="16" height="16" viewBox="0 0 16 16" fill="none" xmlns="http://www.w3.org/2000/svg">
<path d="M4.16129 7.58065C4.16129 8.45361 3.45361 9.16129 2.58065 9.16129C1.70768 9.16129 1 8.45361 1 7.58065C1 6.70768 1.70768 6 2.58065 6C3.45361 6 4.16129 6.70768 4.16129 7.58065Z" stroke="#555A64" stroke-width="0.8"/>
<path d="M9.58064 7.58065C9.58064 8.45361 8.87297 9.16129 8 9.16129C7.12703 9.16129 6.41935 8.45361 6.41935 7.58065C6.41935 6.70768 7.12703 6 8 6C8.87297 6 9.58064 6.70768 9.58064 7.58065Z" stroke="#555A64" stroke-width="0.8"/>
<path d="M15 7.80645C15 8.67942 14.2923 9.3871 13.4194 9.3871C12.5464 9.3871 11.8387 8.67942 11.8387 7.80645C11.8387 6.93349 12.5464 6.22581 13.4194 6.22581C14.2923 6.22581 15 6.93349 15 7.80645Z" stroke="#555A64" stroke-width="0.8"/>
</svg>
