<svg width="24" height="24" viewBox="0 0 24 24" fill="none" xmlns="http://www.w3.org/2000/svg">
<path d="M4.66873 11.0842C5.10627 6.71207 8.03447 2.66669 12.4284 2.66669C16.5968 2.66669 19.4992 6.3068 19.8379 10.4614C20.0107 12.5812 20.5406 14.7326 21.6902 17.3835C22.0097 18.1204 21.4834 18.963 20.6802 18.963H3.69827C2.85345 18.963 2.3293 18.0383 2.7183 17.2884C3.84747 15.1115 4.45986 13.1713 4.66873 11.0842Z" fill="#555A64"/>
<path d="M15.9013 18.963C15.9013 20.763 14.4421 22.2222 12.642 22.2222C10.842 22.2222 9.38277 20.763 9.38277 18.963M12.4284 2.66669C16.5968 2.66669 19.4992 6.3068 19.8379 10.4614C20.0107 12.5812 20.5406 14.7326 21.6902 17.3835C22.0097 18.1204 21.4834 18.963 20.6802 18.963H3.69827C2.85345 18.963 2.3293 18.0383 2.7183 17.2884C3.84747 15.1115 4.45986 13.1713 4.66873 11.0842C5.10627 6.71207 8.03447 2.66669 12.4284 2.66669Z" stroke="#555A64" stroke-width="0.888889"/>
</svg>
