<svg width="16" height="16" viewBox="0 0 16 16" fill="none" xmlns="http://www.w3.org/2000/svg">
<path d="M3.34734 4L3.63019 3.71716L3.34734 3.43431L3.0645 3.71716L3.34734 4ZM9.78952 13.558C10.0104 13.558 10.1895 13.3789 10.1895 13.158C10.1895 12.9371 10.0104 12.758 9.78952 12.758V13.558ZM0.917108 5.86455C0.760899 6.02076 0.760899 6.27402 0.917108 6.43023C1.07332 6.58644 1.32658 6.58644 1.48279 6.43023L0.917108 5.86455ZM5.21189 6.43023C5.3681 6.58644 5.62137 6.58644 5.77758 6.43023C5.93379 6.27402 5.93379 6.02076 5.77758 5.86455L5.21189 6.43023ZM12.6527 13.158L12.3699 13.4408L12.6527 13.7237L12.9355 13.4408L12.6527 13.158ZM6.21053 2.6C5.98962 2.6 5.81053 2.77909 5.81053 3C5.81053 3.22091 5.98962 3.4 6.21053 3.4V2.6ZM15.0829 11.2934C15.2392 11.1372 15.2392 10.8839 15.0829 10.7277C14.9267 10.5715 14.6735 10.5715 14.5173 10.7277L15.0829 11.2934ZM10.7882 10.7277C10.6319 10.5715 10.3787 10.5715 10.2225 10.7277C10.0663 10.8839 10.0663 11.1372 10.2225 11.2934L10.7882 10.7277ZM3.74734 11.7264V4H2.94734V11.7264H3.74734ZM9.78952 12.758H4.77894V13.558H9.78952V12.758ZM3.0645 3.71716L0.917108 5.86455L1.48279 6.43023L3.63019 4.28284L3.0645 3.71716ZM3.0645 4.28284L5.21189 6.43023L5.77758 5.86455L3.63019 3.71716L3.0645 4.28284ZM2.94734 11.7264C2.94734 12.7379 3.76738 13.558 4.77894 13.558V12.758C4.2092 12.758 3.74734 12.2961 3.74734 11.7264H2.94734ZM12.2527 4.43159V13.158H13.0527V4.43159H12.2527ZM6.21053 3.4H11.2211V2.6H6.21053V3.4ZM12.9355 13.4408L15.0829 11.2934L14.5173 10.7277L12.3699 12.8751L12.9355 13.4408ZM12.9355 12.8751L10.7882 10.7277L10.2225 11.2934L12.3699 13.4408L12.9355 12.8751ZM13.0527 4.43159C13.0527 3.42003 12.2327 2.6 11.2211 2.6V3.4C11.7908 3.4 12.2527 3.86186 12.2527 4.43159H13.0527Z" fill="#555A64"/>
</svg>
